<svg xmlns="http://www.w3.org/2000/svg" viewBox="0 0 800 1400" preserveAspectRatio="xMidYMid slice"><defs><radialGradient cx=".5" cy=".0" r=".8" id="g1"><stop offset="0" stop-color="#fbbf24" stop-opacity="0.14"/><stop offset="1" stop-color="#fbbf24" stop-opacity="0"/></radialGradient></defs><rect width="800" height="1400" fill="#0c0c0e"/><rect width="800" height="1400" fill="url(#g1)"/><g opacity="0.16"><g fill="none" stroke="#fbbf24" stroke-width="2.5"><circle cx="184" cy="838" r="18"/><circle cx="184" cy="838" r="12.959999999999999" opacity=".6"/><path d="M184 830.8V845.2M180.04 834.04H187.96M180.04 841.96H187.96" opacity=".7"/></g></g><g opacity="0.1"><g fill="none" stroke="#fbbf24" stroke-width="2.5"><circle cx="578" cy="222" r="38"/><circle cx="578" cy="222" r="27.36" opacity=".6"/><path d="M578 206.8V237.2M569.64 213.64H586.36M569.64 230.36H586.36" opacity=".7"/></g></g><g opacity="0.22"><g fill="none" stroke="#fbbf24" stroke-width="2.5"><circle cx="89" cy="1069" r="26"/><circle cx="89" cy="1069" r="18.72" opacity=".6"/><path d="M89 1058.6V1079.4M83.28 1063.28H94.72M83.28 1074.72H94.72" opacity=".7"/></g></g><g opacity="0.1"><g fill="none" stroke="#fbbf24" stroke-width="2.5"><circle cx="118" cy="918" r="54"/><circle cx="118" cy="918" r="38.879999999999995" opacity=".6"/><path d="M118 896.4V939.6M106.12 906.12H129.88M106.12 929.88H129.88" opacity=".7"/></g></g><g opacity="0.1"><g fill="none" stroke="#fbbf24" stroke-width="2.5"><circle cx="276" cy="215" r="54"/><circle cx="276" cy="215" r="38.879999999999995" opacity=".6"/><path d="M276 193.4V236.6M264.12 203.12H287.88M264.12 226.88H287.88" opacity=".7"/></g></g><g opacity="0.1"><g fill="none" stroke="#fbbf24" stroke-width="2.5"><circle cx="609" cy="283" r="26"/><circle cx="609" cy="283" r="18.72" opacity=".6"/><path d="M609 272.6V293.4M603.28 277.28H614.72M603.28 288.72H614.72" opacity=".7"/></g></g><g opacity="0.22"><g fill="none" stroke="#fbbf24" stroke-width="2.5"><circle cx="672" cy="1223" r="18"/><circle cx="672" cy="1223" r="12.959999999999999" opacity=".6"/><path d="M672 1215.8V1230.2M668.04 1219.04H675.96M668.04 1226.96H675.96" opacity=".7"/></g></g><g opacity="0.22"><g fill="none" stroke="#fbbf24" stroke-width="2.5"><circle cx="629" cy="842" r="18"/><circle cx="629" cy="842" r="12.959999999999999" opacity=".6"/><path d="M629 834.8V849.2M625.04 838.04H632.96M625.04 845.96H632.96" opacity=".7"/></g></g><g opacity="0.1"><g fill="none" stroke="#fbbf24" stroke-width="2.5"><circle cx="77" cy="1170" r="26"/><circle cx="77" cy="1170" r="18.72" opacity=".6"/><path d="M77 1159.6V1180.4M71.28 1164.28H82.72M71.28 1175.72H82.72" opacity=".7"/></g></g><g opacity="0.16"><g fill="none" stroke="#fbbf24" stroke-width="2.5"><circle cx="459" cy="325" r="18"/><circle cx="459" cy="325" r="12.959999999999999" opacity=".6"/><path d="M459 317.8V332.2M455.04 321.04H462.96M455.04 328.96H462.96" opacity=".7"/></g></g><g opacity="0.22"><g fill="none" stroke="#fbbf24" stroke-width="2.5"><circle cx="345" cy="1177" r="26"/><circle cx="345" cy="1177" r="18.72" opacity=".6"/><path d="M345 1166.6V1187.4M339.28 1171.28H350.72M339.28 1182.72H350.72" opacity=".7"/></g></g><g opacity="0.1"><g fill="none" stroke="#fbbf24" stroke-width="2.5"><circle cx="625" cy="1199" r="26"/><circle cx="625" cy="1199" r="18.72" opacity=".6"/><path d="M625 1188.6V1209.4M619.28 1193.28H630.72M619.28 1204.72H630.72" opacity=".7"/></g></g><g opacity="0.16"><g fill="none" stroke="#fbbf24" stroke-width="2.5"><circle cx="129" cy="1151" r="18"/><circle cx="129" cy="1151" r="12.959999999999999" opacity=".6"/><path d="M129 1143.8V1158.2M125.04 1147.04H132.96M125.04 1154.96H132.96" opacity=".7"/></g></g><g opacity="0.22"><g fill="none" stroke="#fbbf24" stroke-width="2.5"><circle cx="91" cy="1297" r="26"/><circle cx="91" cy="1297" r="18.72" opacity=".6"/><path d="M91 1286.6V1307.4M85.28 1291.28H96.72M85.28 1302.72H96.72" opacity=".7"/></g></g><g opacity="0.16"><g fill="none" stroke="#fbbf24" stroke-width="2.5"><circle cx="726" cy="1118" r="54"/><circle cx="726" cy="1118" r="38.879999999999995" opacity=".6"/><path d="M726 1096.4V1139.6M714.12 1106.12H737.88M714.12 1129.88H737.88" opacity=".7"/></g></g><g opacity="0.16"><g fill="none" stroke="#fbbf24" stroke-width="2.5"><circle cx="506" cy="1229" r="54"/><circle cx="506" cy="1229" r="38.879999999999995" opacity=".6"/><path d="M506 1207.4V1250.6M494.12 1217.12H517.88M494.12 1240.88H517.88" opacity=".7"/></g></g><g opacity="0.16"><g fill="none" stroke="#fbbf24" stroke-width="2.5"><circle cx="336" cy="538" r="26"/><circle cx="336" cy="538" r="18.72" opacity=".6"/><path d="M336 527.6V548.4M330.28 532.28H341.72M330.28 543.72H341.72" opacity=".7"/></g></g><g opacity="0.22"><g fill="none" stroke="#fbbf24" stroke-width="2.5"><circle cx="279" cy="197" r="38"/><circle cx="279" cy="197" r="27.36" opacity=".6"/><path d="M279 181.8V212.2M270.64 188.64H287.36M270.64 205.36H287.36" opacity=".7"/></g></g><g opacity="0.22"><g fill="none" stroke="#fbbf24" stroke-width="2.5"><circle cx="536" cy="733" r="54"/><circle cx="536" cy="733" r="38.879999999999995" opacity=".6"/><path d="M536 711.4V754.6M524.12 721.12H547.88M524.12 744.88H547.88" opacity=".7"/></g></g><g opacity="0.16"><g fill="none" stroke="#fbbf24" stroke-width="2.5"><circle cx="653" cy="179" r="18"/><circle cx="653" cy="179" r="12.959999999999999" opacity=".6"/><path d="M653 171.8V186.2M649.04 175.04H656.96M649.04 182.96H656.96" opacity=".7"/></g></g><g opacity="0.22"><g fill="none" stroke="#fbbf24" stroke-width="2.5"><circle cx="458" cy="367" r="38"/><circle cx="458" cy="367" r="27.36" opacity=".6"/><path d="M458 351.8V382.2M449.64 358.64H466.36M449.64 375.36H466.36" opacity=".7"/></g></g><g opacity="0.1"><g fill="none" stroke="#fbbf24" stroke-width="2.5"><circle cx="530" cy="893" r="18"/><circle cx="530" cy="893" r="12.959999999999999" opacity=".6"/><path d="M530 885.8V900.2M526.04 889.04H533.96M526.04 896.96H533.96" opacity=".7"/></g></g><g opacity="0.22"><g fill="none" stroke="#fbbf24" stroke-width="2.5"><circle cx="109" cy="1172" r="38"/><circle cx="109" cy="1172" r="27.36" opacity=".6"/><path d="M109 1156.8V1187.2M100.64 1163.64H117.36M100.64 1180.36H117.36" opacity=".7"/></g></g><g opacity="0.16"><g fill="none" stroke="#fbbf24" stroke-width="2.5"><circle cx="741" cy="747" r="54"/><circle cx="741" cy="747" r="38.879999999999995" opacity=".6"/><path d="M741 725.4V768.6M729.12 735.12H752.88M729.12 758.88H752.88" opacity=".7"/></g></g><g opacity="0.22"><g fill="none" stroke="#fbbf24" stroke-width="2.5"><circle cx="497" cy="170" r="18"/><circle cx="497" cy="170" r="12.959999999999999" opacity=".6"/><path d="M497 162.8V177.2M493.04 166.04H500.96M493.04 173.96H500.96" opacity=".7"/></g></g><g opacity="0.16"><g fill="none" stroke="#fbbf24" stroke-width="2.5"><circle cx="515" cy="163" r="18"/><circle cx="515" cy="163" r="12.959999999999999" opacity=".6"/><path d="M515 155.8V170.2M511.04 159.04H518.96M511.04 166.96H518.96" opacity=".7"/></g></g><circle cx="474" cy="1255" r="1.5" fill="#fbbf24" opacity="0.25"/><circle cx="141" cy="381" r="2" fill="#fbbf24" opacity="0.15"/><circle cx="346" cy="1029" r="1.5" fill="#fbbf24" opacity="0.4"/><circle cx="82" cy="684" r="2" fill="#fbbf24" opacity="0.4"/><circle cx="716" cy="83" r="2" fill="#fbbf24" opacity="0.25"/><circle cx="173" cy="925" r="2" fill="#fbbf24" opacity="0.25"/><circle cx="160" cy="344" r="1" fill="#fbbf24" opacity="0.15"/><circle cx="113" cy="271" r="2" fill="#fbbf24" opacity="0.4"/><circle cx="64" cy="785" r="2" fill="#fbbf24" opacity="0.15"/><circle cx="298" cy="419" r="2" fill="#fbbf24" opacity="0.15"/><circle cx="743" cy="863" r="1" fill="#fbbf24" opacity="0.25"/><circle cx="214" cy="812" r="1.5" fill="#fbbf24" opacity="0.25"/><circle cx="44" cy="408" r="2" fill="#fbbf24" opacity="0.15"/><circle cx="421" cy="112" r="1.5" fill="#fbbf24" opacity="0.25"/><circle cx="142" cy="48" r="1" fill="#fbbf24" opacity="0.25"/><circle cx="753" cy="229" r="2" fill="#fbbf24" opacity="0.15"/><circle cx="124" cy="1185" r="1" fill="#fbbf24" opacity="0.15"/><circle cx="338" cy="16" r="1" fill="#fbbf24" opacity="0.15"/><circle cx="552" cy="35" r="2" fill="#fbbf24" opacity="0.15"/><circle cx="586" cy="1017" r="2" fill="#fbbf24" opacity="0.15"/><circle cx="430" cy="140" r="1.5" fill="#fbbf24" opacity="0.15"/><circle cx="654" cy="191" r="2" fill="#fbbf24" opacity="0.4"/><circle cx="148" cy="353" r="2" fill="#fbbf24" opacity="0.4"/><circle cx="42" cy="110" r="1.5" fill="#fbbf24" opacity="0.4"/><circle cx="699" cy="1241" r="1" fill="#fbbf24" opacity="0.4"/><circle cx="274" cy="1178" r="1" fill="#fbbf24" opacity="0.15"/><circle cx="722" cy="824" r="1" fill="#fbbf24" opacity="0.15"/><circle cx="625" cy="1034" r="1" fill="#fbbf24" opacity="0.4"/><circle cx="374" cy="1380" r="2" fill="#fbbf24" opacity="0.4"/><circle cx="578" cy="177" r="1.5" fill="#fbbf24" opacity="0.15"/><circle cx="598" cy="748" r="1.5" fill="#fbbf24" opacity="0.15"/><circle cx="411" cy="407" r="2" fill="#fbbf24" opacity="0.4"/><circle cx="18" cy="776" r="2" fill="#fbbf24" opacity="0.25"/><circle cx="0" cy="887" r="1" fill="#fbbf24" opacity="0.15"/><circle cx="227" cy="909" r="1.5" fill="#fbbf24" opacity="0.25"/><circle cx="90" cy="629" r="2" fill="#fbbf24" opacity="0.25"/><circle cx="105" cy="1059" r="1" fill="#fbbf24" opacity="0.15"/><circle cx="390" cy="1147" r="1.5" fill="#fbbf24" opacity="0.25"/><circle cx="354" cy="508" r="2" fill="#fbbf24" opacity="0.4"/><circle cx="67" cy="870" r="2" fill="#fbbf24" opacity="0.15"/></svg>